<svg xmlns="http://www.w3.org/2000/svg" style="display:none;">
<symbol id="instagram" viewBox="0 0 512 512" >
   <path d="M256,136.533c-65.877,0-119.467,53.589-119.467,119.467S190.123,375.467,256,375.467S375.467,321.877,375.467,256
				S321.877,136.533,256,136.533z M256,349.867c-51.755,0-93.867-42.112-93.867-93.867c0-51.755,42.112-93.867,93.867-93.867
				c51.755,0,93.867,42.112,93.867,93.867C349.867,307.755,307.755,349.867,256,349.867z"/>
			<path d="M256,179.2c-42.342,0-76.8,34.458-76.8,76.8s34.458,76.8,76.8,76.8s76.8-34.458,76.8-76.8S298.342,179.2,256,179.2z"/>
			<path d="M366.225,68.267h-220.45c-42.735,0-77.508,34.773-77.508,77.508v220.45c0,42.735,34.773,77.508,77.508,77.508h220.45
				c42.735,0,77.508-34.773,77.508-77.508v-220.45C443.733,103.04,408.96,68.267,366.225,68.267z M256,392.533
				c-75.281,0-136.533-61.252-136.533-136.533S180.719,119.467,256,119.467S392.533,180.719,392.533,256
				S331.281,392.533,256,392.533z M392.533,145.067c-14.14,0-25.6-11.46-25.6-25.6s11.46-25.6,25.6-25.6
				c14.14,0,25.6,11.46,25.6,25.6S406.673,145.067,392.533,145.067z"/>
			<path d="M366.225,0h-220.45C65.399,0,0,65.399,0,145.775v220.45C0,446.601,65.399,512,145.775,512h220.45
				C446.601,512,512,446.601,512,366.225v-220.45C512,65.399,446.601,0,366.225,0z M460.8,366.225
				c0,52.147-42.428,94.575-94.575,94.575h-220.45c-52.147,0-94.575-42.428-94.575-94.575v-220.45
				c0-52.147,42.428-94.575,94.575-94.575h220.45c52.147,0,94.575,42.428,94.575,94.575V366.225z"/>
 </symbol>
  <symbol id="linkedin" viewBox="0 0 512 512">
  <path style="display: inline; fill-rule: evenodd; clip-rule: evenodd;" d="M116.504,500.219V170.654H6.975v329.564H116.504
		L116.504,500.219z M61.751,125.674c38.183,0,61.968-25.328,61.968-56.953c-0.722-32.328-23.785-56.941-61.252-56.941
		C24.994,11.781,0.5,36.394,0.5,68.722c0,31.625,23.772,56.953,60.53,56.953H61.751L61.751,125.674z M177.124,500.219
		c0,0,1.437-298.643,0-329.564H286.67v47.794h-0.727c14.404-22.49,40.354-55.533,99.44-55.533
		c72.085,0,126.116,47.103,126.116,148.333v188.971H401.971V323.912c0-44.301-15.848-74.531-55.497-74.531
		c-30.254,0-48.284,20.38-56.202,40.08c-2.897,7.012-3.602,16.861-3.602,26.711v184.047H177.124L177.124,500.219z">

</path>
</symbol>

<symbol id="twitter" viewBox="0 0 20 20">
<path style="display: inline;" d="M459.186,151.787c0.203,4.501,0.305,9.023,0.305,13.565
		c0,138.542-105.461,298.285-298.274,298.285c-59.209,0-114.322-17.357-160.716-47.104c8.212,0.973,16.546,1.47,25.012,1.47
		c49.121,0,94.318-16.759,130.209-44.884c-45.887-0.841-84.596-31.154-97.938-72.804c6.408,1.227,12.968,1.886,19.73,1.886
		c9.55,0,18.816-1.287,27.617-3.68c-47.955-9.633-84.1-52.001-84.1-102.795c0-0.446,0-0.882,0.011-1.318
		c14.133,7.847,30.294,12.562,47.488,13.109c-28.134-18.796-46.637-50.885-46.637-87.262c0-19.212,5.16-37.218,14.193-52.7
		c51.707,63.426,128.941,105.156,216.072,109.536c-1.784-7.675-2.718-15.674-2.718-23.896c0-57.891,46.941-104.832,104.832-104.832
		c30.173,0,57.404,12.734,76.525,33.102c23.887-4.694,46.313-13.423,66.569-25.438c-7.827,24.485-24.434,45.025-46.089,58.002
		c21.209-2.535,41.426-8.171,60.222-16.505C497.448,118.542,479.666,137.004,459.186,151.787z">

</path>

</symbol>
</svg>


