<svg width="31" height="39" viewBox="0 0 31 39" fill="none" xmlns="http://www.w3.org/2000/svg">
<path d="M15.3333 0C11.2681 0.00456571 7.37064 1.6215 4.49607 4.49607C1.6215 7.37064 0.00456571 11.2681 0 15.3333C0 21.5721 4.52908 26.7528 9.3265 32.2364C10.8445 33.9729 12.4162 35.7688 13.8153 37.5858C13.9944 37.8181 14.2243 38.0062 14.4875 38.1356C14.7507 38.265 15.0401 38.3323 15.3333 38.3323C15.6266 38.3323 15.916 38.265 16.1791 38.1356C16.4423 38.0062 16.6723 37.8181 16.8513 37.5858C18.2505 35.7688 19.8222 33.9729 21.3402 32.2364C26.1376 26.7528 30.6667 21.5721 30.6667 15.3333C30.6621 11.2681 29.0452 7.37064 26.1706 4.49607C23.296 1.6215 19.3986 0.00456571 15.3333 0ZM15.3333 21.0833C14.1961 21.0833 13.0844 20.7461 12.1388 20.1143C11.1932 19.4825 10.4562 18.5844 10.021 17.5338C9.58582 16.4831 9.47195 15.327 9.69382 14.2116C9.91568 13.0962 10.4633 12.0716 11.2675 11.2675C12.0716 10.4633 13.0962 9.91568 14.2116 9.69382C15.327 9.47195 16.4831 9.58582 17.5338 10.021C18.5844 10.4562 19.4825 11.1932 20.1143 12.1388C20.7461 13.0844 21.0833 14.1961 21.0833 15.3333C21.0833 16.8583 20.4775 18.3209 19.3992 19.3992C18.3209 20.4775 16.8583 21.0833 15.3333 21.0833Z" fill="black"/>
</svg>
